<?xml version="1.0" standalone="no"?>
<!DOCTYPE svg PUBLIC "-//W3C//DTD SVG 20010904//EN"
 "http://www.w3.org/TR/2001/REC-SVG-20010904/DTD/svg10.dtd">
<svg version="1.0" xmlns="http://www.w3.org/2000/svg"
 width="1059.000000pt" height="1280.000000pt" viewBox="0 0 1059.000000 1280.000000"
 preserveAspectRatio="xMidYMid meet">
<metadata>
Created by potrace 1.15, written by Peter Selinger 2001-2017
</metadata>
<g transform="translate(0.000000,1280.000000) scale(0.100000,-0.100000)"
fill="#000000" stroke="none">
<path d="M6015 12139 c-405 -41 -770 -147 -1121 -328 -277 -142 -534 -331
-764 -561 -458 -457 -695 -984 -717 -1595 -22 -621 203 -1142 701 -1622 124
-120 126 -123 104 -136 -13 -8 -75 -45 -138 -83 -1039 -616 -1768 -1438 -2080
-2344 -24 -69 -45 -126 -46 -128 -1 -2 -40 4 -86 12 -111 21 -176 20 -290 -3
-171 -35 -282 -88 -418 -197 -278 -222 -461 -598 -515 -1054 -28 -241 -30
-368 -6 -530 27 -185 59 -297 126 -437 85 -177 159 -278 334 -453 156 -156
253 -234 549 -446 85 -60 173 -122 196 -139 298 -213 613 -552 805 -866 53
-88 100 -191 101 -220 0 -25 25 -41 57 -37 23 2 30 10 41 43 31 96 99 216 210
368 63 86 75 97 87 77 10 -16 235 -175 348 -244 492 -304 1061 -489 1727 -563
116 -13 245 -17 510 -17 362 -1 486 7 750 45 924 133 1709 527 2335 1170 509
523 795 1110 892 1829 25 190 25 626 0 790 -94 600 -373 1060 -827 1362 -355
236 -831 348 -1310 308 -497 -41 -912 -208 -1310 -527 -200 -160 -432 -422
-560 -633 -266 -440 -352 -994 -219 -1425 164 -533 642 -860 1177 -806 188 19
310 71 409 173 49 51 424 613 431 645 3 17 -10 37 -50 79 l-55 57 -110 -51
c-292 -136 -485 -161 -694 -92 -191 64 -392 257 -485 466 -110 249 -104 606
15 868 69 153 232 342 376 437 234 155 459 209 783 188 239 -16 409 -61 617
-164 201 -100 368 -233 523 -420 239 -285 387 -628 447 -1035 23 -155 31 -480
16 -650 -49 -551 -269 -1025 -656 -1414 -399 -400 -866 -629 -1430 -702 -273
-35 -664 -20 -945 37 -518 105 -1007 369 -1427 772 -113 109 -267 273 -331
354 l-31 40 137 105 c389 299 597 558 698 868 57 174 74 290 74 498 0 336 -71
663 -198 917 -74 149 -223 330 -352 429 -361 278 -857 247 -1214 -74 l-39 -35
6 150 c16 359 87 722 205 1043 103 282 300 628 480 842 168 201 405 407 622
542 l91 57 197 -98 c511 -252 973 -397 1407 -442 149 -15 479 -7 624 16 301
47 547 149 700 291 122 114 176 241 167 395 -21 373 -367 633 -946 710 -117
15 -491 15 -660 0 -277 -26 -511 -71 -739 -143 l-134 -42 -55 59 c-300 330
-533 743 -627 1114 -39 156 -56 275 -62 452 -19 538 139 971 481 1315 237 238
468 344 753 344 251 0 581 -140 1143 -485 691 -424 1062 -564 1367 -515 358
57 820 351 1337 851 82 79 167 166 188 192 l38 49 0 111 c0 62 -4 117 -8 124
-8 13 -115 63 -135 63 -7 0 -60 -44 -118 -97 -227 -212 -424 -371 -572 -459
-98 -58 -209 -98 -252 -91 -72 12 -362 137 -890 385 -375 176 -699 283 -1040
343 -97 17 -169 22 -375 24 -140 2 -295 -1 -345 -6z m647 -3955 c392 -51 638
-196 638 -378 0 -43 -43 -109 -99 -150 -123 -91 -284 -136 -486 -136 -304 0
-587 99 -925 324 -141 95 -310 223 -310 237 0 17 386 91 565 108 159 15 483
12 617 -5z m-4816 -3232 c8 -5 6 -39 -6 -122 -59 -387 -51 -864 20 -1260 124
-687 420 -1259 920 -1783 l101 -106 -35 -52 c-20 -28 -36 -55 -36 -60 0 -21
-18 -6 -40 34 -87 157 -299 395 -530 594 -69 59 -281 209 -400 283 -518 321
-707 483 -845 726 -45 78 -94 212 -115 314 -42 205 -7 543 85 800 37 106 136
266 223 362 39 43 154 131 224 171 69 40 213 85 303 95 108 13 118 13 131 4z
m2079 -26 c107 -21 163 -39 245 -81 353 -178 560 -584 560 -1099 0 -319 -95
-542 -330 -776 -58 -58 -140 -132 -184 -164 -89 -67 -325 -226 -335 -226 -15
0 -182 279 -267 445 -261 509 -379 943 -438 1612 l-6 62 71 51 c210 153 465
218 684 176z"/>
</g>
</svg>
