<?xml version="1.0" standalone="no"?>
<!DOCTYPE svg PUBLIC "-//W3C//DTD SVG 20010904//EN"
 "http://www.w3.org/TR/2001/REC-SVG-20010904/DTD/svg10.dtd">
<svg version="1.0" xmlns="http://www.w3.org/2000/svg"
 width="1182.000000pt" height="1280.000000pt" viewBox="0 0 1182.000000 1280.000000"
 preserveAspectRatio="xMidYMid meet">
<metadata>
Created by potrace 1.15, written by Peter Selinger 2001-2017
</metadata>
<g transform="translate(0.000000,1280.000000) scale(0.100000,-0.100000)"
fill="#000000" stroke="none">
<path d="M2379 12791 c-89 -17 -220 -69 -305 -122 -196 -123 -364 -342 -459
-599 -15 -41 -29 -76 -30 -78 -2 -2 -38 20 -81 48 -138 90 -306 161 -478 202
-75 18 -120 22 -261 22 -156 0 -177 -3 -260 -28 -139 -42 -218 -89 -311 -181
-59 -58 -90 -98 -113 -147 -134 -282 -75 -623 161 -938 60 -81 196 -220 265
-272 l52 -40 -111 -106 c-189 -182 -307 -353 -381 -552 -47 -128 -62 -214 -61
-345 1 -169 44 -297 139 -417 224 -283 680 -361 1158 -197 49 17 90 29 92 27
1 -2 24 -46 50 -98 195 -392 521 -649 878 -691 404 -47 764 225 893 676 22 77
44 205 44 258 0 27 4 47 9 45 25 -8 243 -203 336 -299 124 -129 206 -230 292
-361 66 -100 183 -325 183 -351 0 -28 -209 -1063 -270 -1337 -34 -151 -110
-471 -170 -710 -127 -508 -154 -622 -254 -1105 -41 -198 -125 -585 -186 -860
-183 -819 -282 -1353 -370 -1990 -59 -428 -65 -908 -15 -1203 39 -227 130
-497 221 -659 114 -201 256 -320 439 -368 223 -57 543 63 791 297 242 230 426
568 635 1170 171 492 283 939 333 1323 60 457 89 1332 57 1710 -45 536 -114
956 -272 1664 -43 195 -81 364 -84 375 -5 18 -3 17 12 -4 35 -51 119 -126 166
-148 176 -83 460 -11 645 163 103 97 191 213 395 520 91 138 203 295 249 350
135 162 263 244 385 247 l55 2 -38 19 c-219 112 -985 4 -1399 -198 -203 -100
-385 -244 -463 -369 -41 -65 -82 -162 -83 -199 0 -21 -1 -21 -9 -2 -5 11 -42
157 -81 325 -39 168 -109 453 -154 635 l-82 330 152 305 c467 937 830 1481
1110 1664 101 67 152 87 240 93 116 9 213 -36 323 -149 192 -197 321 -541 397
-1058 47 -313 123 -1342 180 -2425 53 -1001 93 -1514 156 -2005 32 -250 27
-233 62 -226 112 22 227 228 323 576 106 384 240 1057 389 1949 143 856 284
1486 475 2116 186 612 419 1054 710 1345 325 325 590 343 796 54 159 -223 246
-575 275 -1119 28 -512 -52 -1783 -181 -2875 -147 -1248 -188 -1809 -177
-2409 8 -439 50 -668 166 -917 78 -165 204 -314 378 -445 232 -175 455 -253
728 -253 166 -1 231 12 341 65 138 65 240 179 338 375 107 216 115 278 88 664
-20 278 -29 344 -52 380 -24 38 -58 -50 -114 -297 -47 -206 -68 -271 -126
-389 -92 -190 -244 -356 -390 -427 -61 -30 -72 -32 -170 -31 -85 0 -116 5
-163 23 -75 30 -199 112 -263 176 -195 194 -287 635 -255 1230 35 663 144
1538 261 2100 125 600 162 886 202 1580 17 296 17 1288 0 1500 -34 431 -83
717 -158 927 -108 300 -362 583 -608 679 -214 83 -504 77 -716 -14 -113 -49
-173 -87 -269 -172 -175 -153 -412 -459 -622 -801 -302 -493 -561 -1466 -880
-3309 l-59 -340 6 150 c24 640 21 1457 -6 1890 -45 715 -143 1273 -292 1654
-122 313 -317 616 -481 748 -209 169 -420 197 -652 84 -386 -185 -896 -865
-1535 -2044 -92 -170 -115 -206 -125 -195 -34 36 -385 563 -468 703 -52 88
-118 193 -147 234 -57 82 -57 80 25 106 75 24 241 107 323 162 308 207 482
528 442 814 -51 365 -355 646 -815 754 -55 13 -129 26 -165 30 -36 3 -81 8
-100 11 l-35 5 -1 157 c-2 240 -42 426 -134 621 -129 270 -339 461 -582 527
-65 18 -236 26 -299 15z m1925 -5427 c255 -1195 384 -2040 451 -2959 18 -242
20 -626 5 -800 -24 -280 -79 -635 -160 -1030 -106 -514 -220 -910 -334 -1160
-87 -190 -266 -470 -362 -568 -124 -126 -209 -161 -384 -155 -98 3 -122 7
-163 28 -116 59 -192 198 -242 443 -61 303 -55 700 20 1227 72 500 386 2066
679 3375 109 489 187 858 327 1547 46 224 84 406 86 405 1 -2 36 -161 77 -353z"/>
<path d="M1521 7320 c-2 -139 156 -438 379 -720 131 -165 365 -392 493 -479
120 -81 281 -162 372 -186 82 -23 227 -30 297 -16 124 26 236 105 311 219 147
221 106 434 -122 629 -166 142 -315 184 -841 238 -285 29 -405 47 -514 75
-193 51 -296 118 -359 235 -16 30 -16 30 -16 5z"/>
</g>
</svg>
